<?xml version="1.0" standalone="no"?>
<!DOCTYPE svg PUBLIC "-//W3C//DTD SVG 20010904//EN"
 "http://www.w3.org/TR/2001/REC-SVG-20010904/DTD/svg10.dtd">
<svg version="1.0" xmlns="http://www.w3.org/2000/svg"
 width="1280.000000pt" height="1280.000000pt" viewBox="0 0 1280.000000 1280.000000"
 preserveAspectRatio="xMidYMid meet">

<g transform="translate(0.000000,1280.000000) scale(0.100000,-0.100000)"
fill="#000000" stroke="none">
<path d="M6165 10844 c-156 -12 -381 -38 -483 -55 -254 -43 -600 -140 -842
-236 -151 -60 -421 -190 -524 -251 -44 -27 -96 -57 -114 -66 -77 -40 -370
-240 -482 -330 -307 -247 -573 -518 -797 -812 -90 -118 -207 -292 -238 -354
-15 -30 -34 -63 -42 -72 -8 -9 -35 -54 -59 -100 -226 -423 -379 -842 -459
-1253 -13 -71 -29 -152 -35 -180 -20 -99 -42 -282 -49 -415 -8 -132 -5 -750 3
-800 2 -14 7 -55 11 -93 4 -44 10 -65 17 -61 7 4 8 2 4 -5 -10 -15 10 -172 34
-276 10 -44 21 -100 25 -125 7 -60 36 -176 89 -355 18 -65 86 -252 120 -335
15 -36 34 -85 43 -110 19 -55 197 -401 276 -535 61 -105 259 -380 381 -530
151 -185 423 -445 661 -630 519 -405 1183 -705 1856 -840 458 -91 1001 -104
1509 -34 214 29 543 108 755 182 621 216 1163 548 1630 999 395 381 700 808
945 1323 105 222 241 597 244 676 0 21 4 35 8 33 4 -3 11 12 17 33 5 21 15 57
21 80 19 74 50 254 70 403 34 265 43 440 37 761 -6 345 -15 425 -81 794 -17
91 -64 257 -69 245 -4 -8 -4 -5 -1 7 14 57 -145 522 -264 774 -51 107 -202
390 -262 489 -135 222 -393 543 -614 763 -290 288 -538 481 -881 686 -530 316
-1096 508 -1720 582 -162 20 -605 33 -740 23z m1070 -394 c44 -6 121 -12 170
-15 142 -8 310 -26 315 -35 3 -4 38 -10 79 -14 41 -4 102 -16 135 -27 34 -10
74 -19 89 -19 15 0 30 -7 33 -15 4 -10 13 -13 25 -10 10 3 30 -2 46 -12 15
-10 28 -17 30 -15 8 6 249 -68 285 -88 10 -6 36 -10 58 -10 22 0 40 -5 40 -10
0 -17 51 -60 62 -54 6 4 13 3 17 -2 6 -9 77 -44 88 -44 4 0 -2 6 -13 14 -10 8
-16 17 -13 20 3 3 14 -2 25 -12 11 -9 26 -18 34 -20 8 -2 17 -8 18 -13 2 -5 8
-9 14 -9 15 0 63 -40 63 -53 0 -7 17 -18 38 -24 37 -13 131 -79 192 -135 17
-16 52 -43 78 -60 27 -17 65 -45 84 -62 20 -17 59 -51 87 -75 278 -239 593
-625 818 -1001 83 -139 231 -435 289 -580 125 -311 228 -693 279 -1035 41
-278 54 -519 44 -820 -4 -132 -8 -274 -8 -317 -1 -42 -4 -72 -7 -66 -3 5 -9
-21 -13 -59 -7 -76 -30 -207 -51 -298 -8 -33 -19 -87 -25 -120 -39 -207 -198
-671 -273 -797 -61 -101 -202 -146 -432 -135 -183 9 -284 42 -404 132 -35 27
-83 76 -107 109 -24 34 -50 68 -58 76 -14 14 -56 113 -56 128 0 4 8 -2 17 -13
l16 -20 -8 20 c-15 42 -17 55 -6 55 6 0 11 12 12 28 0 15 3 21 6 14 7 -18 43
30 43 59 0 12 3 19 7 16 3 -4 12 5 20 19 10 20 10 30 2 40 -12 14 -7 18 23 15
9 -1 19 3 23 9 3 5 -2 10 -11 10 -16 0 -16 1 0 19 9 10 14 25 11 34 -4 8 -2
18 4 21 5 3 12 -8 16 -24 8 -35 28 -35 33 -1 2 14 0 21 -7 17 -6 -4 -9 5 -8
24 1 16 6 30 11 30 4 0 6 -8 3 -19 -4 -16 -1 -18 22 -12 24 7 26 11 25 59 0
29 0 52 2 52 1 0 9 -6 17 -14 17 -17 26 -11 49 30 12 21 15 42 11 67 -3 23 -2
37 5 37 6 0 12 -10 14 -22 3 -22 4 -22 9 3 4 19 1 25 -13 26 -11 1 -23 -7 -28
-20 -8 -20 -9 -21 -9 -2 0 11 6 29 14 39 10 14 15 15 15 6 0 -11 3 -11 12 -2
10 10 10 15 -1 21 -11 7 -11 17 3 57 44 135 47 368 6 499 -42 137 -133 285
-244 399 -62 64 -75 96 -40 96 17 0 18 17 2 23 -9 3 -6 12 10 29 12 13 22 34
22 45 0 11 7 26 15 33 24 20 67 181 66 248 0 23 3 42 7 42 12 0 14 197 2 300
-7 63 -19 112 -35 146 -14 28 -25 65 -25 83 0 18 -4 30 -9 27 -5 -4 -12 7 -16
24 -7 34 -25 50 -25 23 0 -10 -20 25 -44 78 -57 127 -116 217 -207 313 -93
100 -208 185 -320 239 -61 29 -88 47 -89 60 0 9 -7 17 -16 17 -10 0 -14 6 -10
15 3 8 1 15 -5 15 -6 0 -8 15 -4 38 3 25 2 31 -3 17 -8 -17 -11 -15 -22 20
-31 97 -155 250 -273 338 -97 72 -130 90 -239 131 -167 62 -356 66 -512 10
-98 -35 -106 -35 -128 5 -63 112 -248 310 -378 406 -249 182 -539 283 -874
305 -440 28 -851 -109 -1200 -402 -168 -141 -291 -317 -373 -533 l-19 -50 -89
-7 c-273 -22 -536 -126 -723 -286 -68 -58 -199 -221 -245 -304 -19 -34 -47
-85 -62 -113 -38 -69 -79 -185 -112 -312 -25 -99 -28 -124 -28 -288 1 -156 4
-191 24 -265 32 -119 59 -196 93 -264 16 -32 28 -59 26 -61 -2 -1 -20 -10 -40
-20 -112 -52 -276 -236 -358 -399 -70 -142 -91 -229 -97 -406 -4 -132 -2 -154
21 -245 55 -215 175 -400 354 -547 69 -57 72 -61 72 -102 0 -114 -60 -242
-167 -356 -76 -81 -147 -126 -242 -154 -65 -19 -227 -20 -286 -2 -33 10 -40
16 -40 38 -1 14 -6 32 -13 40 -6 8 -10 17 -7 20 3 3 -1 11 -10 18 -8 7 -15 18
-15 25 0 7 -7 18 -15 25 -8 7 -12 17 -8 23 3 5 -3 17 -14 26 -11 9 -25 34 -31
56 -6 22 -18 60 -28 85 -16 42 -31 118 -39 200 -2 19 -8 48 -14 63 -6 16 -11
47 -11 70 0 23 -4 58 -10 77 -5 19 -10 91 -11 160 0 75 -6 147 -15 180 -12 44
-14 123 -13 390 1 184 6 382 11 440 4 58 11 141 15 185 3 44 12 88 19 99 8 12
11 35 7 65 -3 30 1 61 12 91 9 25 24 74 32 110 9 36 22 79 31 96 10 20 13 47
10 77 -5 41 -3 48 20 63 17 11 21 18 13 24 -14 8 -5 80 10 80 5 0 9 18 9 40 0
26 4 39 12 37 7 -1 20 29 32 78 11 44 26 83 33 88 6 4 17 34 24 67 8 40 17 60
28 62 10 2 17 15 18 33 4 54 15 105 23 105 12 0 50 68 50 89 0 9 5 22 12 29 7
7 8 12 3 12 -5 0 1 7 13 16 12 8 20 20 16 25 -3 6 3 13 15 16 16 4 21 13 21
37 0 17 10 51 21 76 11 25 30 69 41 98 11 28 24 52 29 52 5 0 9 6 9 14 0 7 7
19 16 27 8 7 13 21 10 32 -3 11 4 26 19 38 12 11 33 47 46 80 13 32 29 59 36
59 13 0 17 12 14 38 -1 6 9 16 22 21 15 6 27 23 36 50 7 24 18 41 26 41 9 0
15 9 15 22 0 26 46 88 66 88 8 0 14 10 14 25 0 14 3 25 8 25 4 0 16 18 26 40
11 22 25 40 33 40 7 0 13 9 13 20 0 22 20 45 63 73 14 9 29 28 33 42 3 14 12
25 18 25 7 0 20 16 29 35 9 19 20 35 25 35 7 0 52 42 112 108 17 17 37 32 44
32 8 0 25 20 37 44 17 36 28 45 55 51 19 3 33 9 31 14 -4 14 64 70 78 64 9 -3
18 2 21 12 5 12 9 13 14 5 5 -9 10 -6 15 9 3 11 12 21 19 21 7 0 24 12 38 28
37 38 87 82 96 82 4 0 26 17 49 38 55 48 96 78 106 74 4 -1 12 9 17 24 6 14
14 23 18 20 5 -3 18 2 29 12 18 16 38 28 118 71 16 9 35 23 42 32 18 24 129
89 152 89 12 0 21 4 21 9 0 5 10 13 23 16 12 4 31 17 42 30 11 13 41 29 65 36
25 7 50 16 55 20 6 4 30 12 55 19 25 7 51 17 58 23 12 10 52 24 162 58 25 7
51 19 58 26 7 7 22 13 32 13 10 0 20 7 24 15 3 8 14 15 25 15 11 0 23 5 26 10
3 6 17 10 29 10 13 0 37 7 52 15 16 8 39 15 51 15 12 0 25 5 28 10 3 6 19 10
35 10 16 0 64 11 107 24 117 36 208 56 250 56 21 0 49 7 61 16 12 8 22 10 22
5 0 -15 46 -14 62 2 7 7 47 18 88 25 41 6 95 16 120 22 45 12 626 28 755 22
39 -2 106 -7 150 -12z m-737 -1255 c266 -65 445 -160 625 -334 149 -143 246
-302 313 -510 21 -66 42 -121 46 -121 4 0 17 19 29 42 92 180 245 279 434 279
153 0 283 -70 381 -204 24 -34 44 -66 44 -72 0 -6 -35 -21 -77 -34 -112 -32
-234 -82 -240 -98 -3 -7 7 -29 21 -48 15 -19 40 -63 56 -99 l29 -65 53 22 c46
19 72 22 203 22 140 0 155 -2 219 -28 241 -96 408 -297 461 -558 23 -111 16
-325 -13 -415 -45 -142 -141 -271 -255 -345 -61 -40 -189 -87 -245 -91 -19 -1
-35 -5 -38 -9 -2 -3 28 -27 66 -53 40 -26 93 -74 124 -113 l56 -66 63 2 c319
12 557 -242 534 -570 -8 -101 -31 -172 -87 -258 -74 -115 -170 -192 -288 -233
l-67 -23 -910 0 -910 0 -5 -785 c-4 -673 -7 -789 -20 -812 -27 -48 -565 -564
-612 -587 -54 -26 -122 -27 -165 -4 -38 21 -549 517 -605 586 l-38 49 0 779 0
779 -917 0 c-997 -1 -970 -2 -1082 54 -60 31 -156 126 -210 209 -23 34 -53 98
-68 142 -36 108 -37 276 -4 375 57 166 186 320 322 385 93 44 200 62 282 48
l59 -10 86 87 c48 48 107 100 132 116 l45 28 -98 14 c-167 22 -255 69 -352
189 -102 125 -140 256 -132 458 7 158 31 255 94 378 109 211 255 358 445 446
200 94 345 117 560 90 49 -7 91 -9 94 -6 3 3 14 47 24 99 30 153 82 269 174
392 213 281 554 472 906 506 138 14 346 2 458 -25z m4249 -3457 c-3 -7 -5 -2
-5 12 0 14 2 19 5 13 2 -7 2 -19 0 -25z m-8642 -56 c11 -66 14 -125 5 -116
-10 10 -27 163 -17 154 3 -3 8 -20 12 -38z m7335 -536 c0 -2 -8 -10 -17 -17
-16 -13 -17 -12 -4 4 13 16 21 21 21 13z m-35 -86 c3 -5 2 -10 -4 -10 -5 0
-13 5 -16 10 -3 6 -2 10 4 10 5 0 13 -4 16 -10z m-5835 -108 c0 -15 2 -15 10
-2 8 13 10 12 10 -4 0 -11 3 -16 7 -13 3 4 11 3 17 -2 19 -14 46 -21 46 -11 0
6 -9 10 -20 10 -11 0 -20 4 -20 9 0 6 12 6 31 -1 16 -6 28 -16 26 -22 -3 -7 7
-13 25 -14 16 -1 36 -9 44 -16 7 -8 37 -22 66 -31 29 -10 60 -23 68 -30 14
-11 174 -56 320 -89 36 -9 137 -17 229 -20 108 -3 179 -10 210 -20 25 -9 85
-18 134 -22 58 -4 93 -11 103 -21 9 -10 28 -14 53 -11 22 2 43 -2 50 -9 6 -7
23 -13 36 -13 13 0 27 -4 30 -10 3 -5 15 -10 26 -10 11 0 22 -7 25 -15 4 -8
10 -12 15 -9 5 3 9 1 9 -3 0 -5 9 -9 20 -10 11 -1 18 2 15 7 -3 4 2 11 11 14
10 4 13 2 8 -6 -5 -7 -2 -9 9 -5 9 3 21 -1 29 -11 9 -11 10 -14 1 -8 -8 4 -13
1 -13 -9 0 -12 6 -15 23 -11 12 3 16 3 10 0 -21 -9 -15 -27 7 -21 25 6 26 -8
3 -22 -16 -9 -16 -10 -1 -11 9 0 25 -3 35 -7 16 -6 17 -5 3 13 -14 18 -14 18
2 5 14 -10 15 -17 7 -32 -13 -25 -3 -59 17 -59 8 0 12 5 9 10 -3 6 -3 10 2 10
4 0 14 -13 21 -30 8 -16 20 -30 27 -30 8 0 17 -5 21 -12 5 -8 2 -9 -9 -5 -10
3 -17 2 -17 -3 0 -6 11 -10 25 -10 15 0 25 -6 25 -14 0 -23 22 -31 32 -12 5 9
14 16 19 16 6 0 3 -7 -5 -16 -18 -17 -22 -39 -6 -29 6 3 10 1 10 -5 0 -18 63
-77 78 -73 6 3 12 -1 12 -7 0 -7 14 -25 31 -41 19 -18 29 -35 25 -45 -3 -8 -2
-13 2 -10 9 5 31 -200 34 -309 3 -134 22 -169 177 -319 57 -56 114 -112 125
-125 12 -13 44 -46 73 -74 29 -27 50 -54 47 -58 -3 -5 0 -9 7 -9 16 0 129
-112 129 -127 0 -7 5 -13 11 -13 21 0 84 -65 81 -83 -2 -9 3 -17 11 -17 7 0
54 -16 103 -35 49 -20 120 -42 157 -50 79 -17 204 -20 242 -5 14 5 42 12 62
14 19 3 45 14 57 25 12 12 30 21 39 21 9 0 27 11 41 25 13 13 48 44 78 68 50
41 180 167 204 199 7 8 14 24 16 34 2 10 10 18 16 17 7 -2 12 3 12 11 0 8 6
21 13 28 20 22 43 70 61 128 10 30 22 64 27 75 12 25 28 143 22 165 -2 8 7 26
21 39 13 13 22 29 19 36 -5 15 14 19 122 30 72 7 137 29 185 64 124 89 189
235 172 382 -5 38 -11 54 -22 54 -12 0 -16 -20 -22 -93 -7 -104 -18 -140 -61
-194 -19 -25 -37 -38 -53 -38 -17 0 -24 -6 -24 -19 0 -12 -7 -19 -17 -19 -10
0 -26 -3 -35 -7 -19 -7 -22 2 -12 28 3 8 13 13 24 10 31 -8 31 15 0 26 -33 11
-42 32 -10 24 14 -4 20 0 20 11 0 10 -4 15 -9 12 -34 -21 -6 132 30 167 11 9
14 12 9 5 -6 -7 -10 -19 -10 -27 1 -9 7 -4 16 12 8 15 12 32 9 37 -4 6 1 13 9
16 9 4 16 18 16 34 0 41 18 83 32 74 6 -4 8 -3 5 3 -3 5 14 32 38 60 25 28 45
56 45 62 0 18 95 111 113 111 10 0 17 8 17 20 0 13 5 17 14 14 8 -3 17 3 20
14 9 26 34 36 55 20 9 -7 13 -8 9 -4 -11 13 28 38 71 47 20 4 47 10 61 13 14
4 44 7 67 8 23 1 37 5 31 9 -6 4 -3 9 8 12 29 8 573 45 649 44 67 0 163 6 172
12 5 3 15 15 21 26 10 17 11 17 12 3 0 -9 5 -20 12 -24 7 -4 8 -3 4 4 -4 7 -5
12 -2 12 3 0 13 -17 21 -37 9 -20 34 -62 57 -92 191 -253 493 -351 828 -269
47 11 96 28 110 37 l25 16 -22 -35 c-11 -19 -41 -73 -65 -120 -108 -205 -209
-361 -393 -604 -332 -441 -756 -816 -1265 -1120 -107 -64 -366 -193 -511 -254
-212 -91 -587 -204 -814 -247 -783 -147 -1582 -86 -2310 177 -232 83 -644 275
-628 293 4 4 3 5 -4 2 -12 -8 -133 60 -133 74 0 5 -6 9 -14 9 -8 0 -22 9 -30
21 -8 12 -19 18 -25 14 -6 -3 -11 1 -11 9 0 11 -10 16 -32 17 l-33 1 30 8 c29
7 27 11 -5 15 -8 0 -28 5 -43 9 -21 7 -26 13 -21 28 5 17 4 18 -15 6 -15 -9
-23 -10 -32 -1 -13 13 -4 33 14 33 7 0 6 -4 -3 -10 -8 -5 -11 -12 -7 -16 4 -4
15 -1 23 8 14 14 13 17 -15 37 -16 12 -33 30 -36 41 -4 11 -12 20 -18 20 -7 1
-21 15 -32 33 -11 17 -29 33 -40 36 -23 4 -44 29 -45 53 0 10 -11 23 -24 30
-14 7 -25 16 -25 21 -1 4 -1 12 -1 17 0 6 -9 10 -20 10 -11 0 -20 7 -20 15 0
19 -19 43 -102 128 -38 38 -68 73 -68 79 0 5 -5 6 -11 2 -8 -4 -9 0 -4 15 5
15 2 21 -9 21 -9 0 -26 11 -38 25 -14 17 -24 21 -29 14 -4 -7 -10 3 -14 22 -4
19 -20 46 -36 60 -16 14 -29 32 -29 41 0 8 -11 25 -25 38 -14 13 -25 32 -25
42 0 10 -6 18 -14 18 -7 0 -26 20 -42 45 -15 25 -33 45 -40 45 -6 0 -19 15
-28 34 -8 18 -22 39 -31 46 -8 7 -15 21 -15 31 0 10 -5 21 -11 25 -8 5 -8 9 1
14 7 4 0 17 -23 37 -42 37 -57 62 -58 100 l-1 28 -8 -25 -8 -25 -7 23 c-4 12
-10 22 -14 22 -8 0 -36 71 -33 82 1 4 -7 12 -17 17 -13 7 -17 18 -14 36 3 15
1 25 -6 25 -6 0 -11 17 -11 38 0 20 -11 58 -24 84 -15 31 -19 49 -12 52 7 3 6
8 -4 15 -13 10 -13 13 3 22 9 6 15 14 12 18 -2 5 35 11 83 14 221 13 404 148
515 379 27 58 48 133 49 175 0 26 18 21 18 -5z m1571 -355 c-10 -9 -11 -8 -5
6 3 10 9 15 12 12 3 -3 0 -11 -7 -18z m304 -257 c3 -6 -1 -7 -9 -4 -18 7 -21
14 -7 14 6 0 13 -4 16 -10z m145 -150 c0 -5 -5 -10 -11 -10 -5 0 -7 5 -4 10 3
6 8 10 11 10 2 0 4 -4 4 -10z m2250 -244 c0 -2 -7 -6 -15 -10 -8 -3 -15 -1
-15 4 0 6 7 10 15 10 8 0 15 -2 15 -4z m-78 -48 c-7 -7 -12 -8 -12 -2 0 14 12
26 19 19 2 -3 -1 -11 -7 -17z m-389 -523 c-3 -9 -8 -14 -10 -11 -3 3 -2 9 2
15 9 16 15 13 8 -4z"/>
<path d="M7540 8863 c0 -6 8 -17 18 -24 16 -13 16 -13 2 6 -8 11 -16 22 -17
24 -2 2 -3 0 -3 -6z"/>
<path d="M9570 5281 c0 -14 18 -23 31 -15 8 4 7 9 -2 15 -18 11 -29 11 -29 0z"/>
<path d="M6207 7408 l-177 -173 0 -508 c0 -557 0 -561 -59 -591 -24 -13 -67
-16 -219 -16 -104 0 -271 -3 -371 -7 l-182 -6 3 -207 c3 -224 9 -250 64 -270
15 -6 204 -10 449 -10 l423 0 33 -27 c63 -53 60 4 59 -1107 -2 -880 0 -1017
13 -1042 75 -145 310 -135 380 16 9 18 13 296 17 1047 5 1014 5 1022 26 1050
46 62 50 63 479 63 419 0 420 0 459 53 19 26 21 44 24 232 l4 203 -79 8 c-43
4 -190 4 -328 1 -279 -6 -339 0 -372 38 l-23 26 0 495 0 495 -197 204 c-156
161 -203 205 -223 205 -20 0 -67 -40 -203 -172z"/>
<path d="M4923 7090 c-187 -29 -294 -222 -234 -420 60 -197 284 -282 464 -177
147 87 209 275 138 422 -16 33 -44 74 -62 92 -73 69 -192 101 -306 83z"/>
<path d="M7827 7089 c-84 -20 -172 -91 -215 -174 -21 -41 -26 -64 -26 -130 0
-136 55 -228 180 -301 45 -26 57 -29 144 -29 81 0 102 4 143 25 62 31 122 96
155 168 37 81 36 188 -2 266 -67 137 -227 211 -379 175z"/>
<path d="M4834 4338 c-14 -21 -6 -188 11 -238 25 -75 86 -162 144 -204 75 -56
141 -78 248 -84 82 -4 100 -2 170 23 52 19 86 38 102 57 13 16 21 31 18 34 -3
3 -41 -11 -83 -33 -72 -35 -84 -38 -164 -38 -104 1 -160 11 -160 30 0 9 -6 12
-15 9 -38 -15 -187 120 -205 186 -5 19 -10 49 -10 65 0 20 -3 26 -9 17 -11
-19 -21 33 -21 114 0 61 -11 87 -26 62z"/>
<path d="M4911 4084 c0 -11 3 -14 6 -6 3 7 2 16 -1 19 -3 4 -6 -2 -5 -13z"/>
<path d="M4920 4050 c0 -5 5 -10 11 -10 5 0 7 5 4 10 -3 6 -8 10 -11 10 -2 0
-4 -4 -4 -10z"/>
<path d="M4995 3960 c3 -5 8 -10 11 -10 2 0 4 5 4 10 0 6 -5 10 -11 10 -5 0
-7 -4 -4 -10z"/>
<path d="M10050 9366 c0 -2 8 -10 18 -17 15 -13 16 -12 3 4 -13 16 -21 21 -21
13z"/>
<path d="M10107 9298 c5 -7 33 -46 63 -85 51 -70 70 -87 70 -60 0 12 -20 47
-20 36 0 -9 -70 58 -70 68 -1 11 -36 53 -45 53 -4 0 -3 -6 2 -12z"/>
<path d="M10255 9093 c361 -548 600 -1128 734 -1788 105 -513 107 -1298 5
-1810 -96 -486 -208 -822 -412 -1235 -209 -426 -507 -836 -871 -1201 -372
-371 -753 -644 -1234 -886 -240 -120 -399 -185 -682 -278 -524 -173 -1234
-242 -1873 -180 -612 59 -1321 276 -1846 567 -50 28 -110 61 -134 74 -23 13
-45 24 -48 24 -10 0 21 -25 48 -39 15 -8 37 -23 48 -34 12 -10 29 -20 38 -22
9 -1 16 -8 14 -15 -1 -6 2 -9 7 -6 5 3 11 -1 15 -9 3 -8 10 -15 15 -15 16 0
121 -66 115 -72 -3 -3 11 -9 31 -12 25 -5 35 -12 33 -23 -2 -10 6 -16 26 -19
16 -2 32 -7 35 -11 3 -4 26 -18 51 -31 57 -28 108 -59 139 -83 13 -10 31 -19
39 -19 9 0 23 -7 33 -16 10 -9 29 -17 42 -18 14 0 23 -6 20 -12 -5 -13 24 -27
38 -18 5 3 20 -3 34 -14 14 -11 45 -26 70 -33 25 -7 45 -17 45 -21 0 -4 5 -8
10 -8 6 0 39 -13 73 -29 34 -16 91 -39 125 -50 35 -12 71 -26 80 -31 37 -21
96 -40 121 -40 15 0 31 -4 36 -9 20 -17 243 -78 308 -83 16 -1 33 -10 37 -19
8 -14 37 -22 126 -33 11 -1 26 -6 33 -10 7 -5 32 -10 56 -11 45 -3 259 -42
285 -52 8 -3 26 -7 40 -8 104 -11 147 -18 163 -27 11 -5 90 -13 176 -18 170
-9 634 -5 650 5 6 3 35 6 66 6 34 1 55 5 55 13 0 7 4 6 9 -2 7 -11 25 -12 102
-2 52 7 119 14 149 15 30 1 55 3 55 4 0 1 14 4 30 6 62 8 145 28 145 35 0 5
18 11 40 15 25 4 40 12 40 21 0 11 18 14 84 14 49 0 88 4 91 11 4 6 19 10 33
9 15 -1 34 -2 42 -1 13 1 13 2 0 11 -11 8 -2 10 35 10 75 0 125 10 125 26 0 8
8 14 19 14 10 0 24 7 31 15 7 8 20 15 30 15 10 0 23 7 30 15 8 10 29 14 62 13
36 0 53 4 59 15 9 15 122 57 154 57 9 0 14 4 11 9 -3 5 11 11 32 14 20 4 59
20 85 37 26 16 57 30 68 30 13 0 18 4 13 11 -5 8 1 10 21 7 21 -4 29 -1 32 12
3 11 18 21 40 25 32 6 53 16 128 63 11 7 28 15 38 18 9 4 17 10 17 15 0 5 9 9
20 9 11 0 20 4 20 9 0 15 66 51 94 51 14 0 26 4 26 8 0 5 28 23 63 40 72 37
97 55 97 69 0 6 17 13 38 17 27 4 52 19 84 50 25 24 62 50 82 57 20 7 36 18
36 24 0 6 18 24 39 41 22 16 37 32 35 36 -3 4 2 5 10 2 10 -4 18 1 22 10 4 9
24 26 45 36 20 11 40 29 44 40 3 11 15 20 26 20 10 0 19 7 19 15 0 8 3 15 8
15 22 1 152 125 152 145 0 7 14 18 30 25 17 7 30 16 30 21 0 4 9 11 20 14 11
3 20 13 20 21 0 8 7 17 15 20 8 4 13 10 10 14 -5 9 34 47 44 41 3 -2 11 5 16
17 19 35 37 53 73 68 23 9 32 19 28 29 -3 8 -1 15 4 15 16 0 79 66 89 93 7 17
16 25 25 21 18 -7 37 26 33 57 -1 17 5 24 23 29 18 5 24 12 23 29 -2 12 1 20
6 16 12 -6 51 33 51 51 0 17 16 53 40 89 11 17 23 38 26 47 4 10 13 18 21 18
9 0 13 6 10 14 -4 10 -1 13 8 9 9 -3 25 8 41 26 14 17 30 29 35 25 5 -3 10 1
10 8 1 7 3 23 4 36 3 31 14 40 50 44 24 2 29 7 27 24 -4 28 33 138 55 163 18
22 63 127 63 148 0 8 7 16 15 19 8 4 15 16 15 27 0 12 6 39 14 62 8 22 24 73
37 113 13 39 27 72 31 72 5 0 8 9 8 19 0 11 5 23 10 26 6 3 10 15 10 25 0 10
9 25 20 33 11 8 23 29 26 48 4 19 15 48 25 64 9 17 23 53 30 80 7 28 17 53 22
57 6 3 11 28 11 55 1 28 8 58 19 73 9 13 17 32 17 40 0 9 11 27 24 40 22 20
23 24 10 37 -15 15 -16 47 -2 41 23 -10 59 105 60 191 0 30 5 54 11 57 8 3 11
33 9 94 -3 77 -2 90 12 90 12 0 16 10 16 40 0 24 -5 40 -12 40 -7 0 -6 6 4 18
11 12 16 44 17 116 1 55 4 102 6 106 2 3 5 73 6 154 2 130 5 149 19 153 16 4
16 7 -1 42 -14 29 -18 58 -16 125 1 61 -1 86 -10 86 -17 0 -26 18 -16 33 10
16 10 41 -1 48 -18 13 -33 76 -23 95 7 12 6 23 -2 35 -16 26 -15 189 2 190 6
0 2 4 -11 9 -27 11 -39 37 -24 52 6 6 7 19 2 32 -19 48 -42 132 -42 154 0 12
-4 25 -9 28 -13 8 -11 58 3 72 9 9 7 17 -8 34 -24 27 -44 91 -44 142 0 20 -4
36 -10 36 -5 0 -7 7 -4 15 4 8 1 22 -6 30 -6 8 -10 20 -7 27 2 7 -7 34 -20 60
-14 27 -22 55 -19 66 4 11 0 24 -9 32 -8 7 -15 27 -15 44 -1 33 -39 155 -56
177 -6 8 -17 35 -24 62 -7 26 -17 47 -21 47 -5 0 -9 13 -9 30 0 36 -28 121
-44 135 -7 5 -21 30 -31 55 -10 25 -25 52 -32 61 -7 8 -13 22 -13 29 0 8 -8
23 -18 34 -11 12 -27 47 -36 79 -11 34 -24 57 -32 57 -8 0 -14 5 -14 11 0 6
-9 22 -20 36 -11 14 -18 29 -15 33 2 4 -4 15 -15 25 -11 10 -20 31 -20 46 0
18 -7 32 -19 39 -11 5 -23 20 -26 32 -4 13 -18 34 -30 48 -13 14 -27 37 -30
53 -4 15 -13 27 -20 27 -15 0 -25 22 -25 55 0 28 -25 52 -34 33 -3 -7 -4 -1
-2 15 2 15 -1 27 -5 27 -5 0 -9 5 -9 11 0 7 -13 24 -29 40 -16 15 -37 44 -47
65 -10 20 -25 39 -35 41 -9 3 -29 28 -43 57 -15 30 -38 63 -51 75 -14 11 -25
28 -25 36 0 34 -67 114 -89 107 -9 -3 -11 2 -6 19 4 17 3 20 -3 10 -7 -9 -12
-10 -16 -2 -4 6 -4 11 1 11 10 0 -19 20 -30 20 -4 0 4 -17 18 -37z"/>
<path d="M10391 8964 c0 -11 3 -14 6 -6 3 7 2 16 -1 19 -3 4 -6 -2 -5 -13z"/>
</g>
</svg>
